<?xml version="1.0" encoding="UTF-8"?>
<svg width="91px" height="37px" viewBox="0 0 91 37" version="1.1" xmlns="http://www.w3.org/2000/svg" xmlns:xlink="http://www.w3.org/1999/xlink">
    <title>KPMG_NoCP_RGB_278</title>
    <g id="Symbols" stroke="none" stroke-width="1" fill="none" fill-rule="evenodd">
        <g id="page-/-NAV" transform="translate(-130.000000, -14.000000)" fill="#00338D">
            <path d="M200.797683,14 L200.797683,32.4627858 C200.160381,32.9720839 199.618755,33.5174586 199.11405,34.1054102 L199.11405,14 L178.911733,14 L178.911733,30.8117111 L177.238053,30.8117111 L177.238053,14 L157.032205,14 L157.032205,30.8383623 L155.360772,30.8383623 L155.360772,14 L135.154602,14 L135.154602,33.1917938 L130,50.5924315 L134.533674,50.5924315 L136.811267,42.8860077 L137.466227,42.8860077 L141.22647,50.5924315 L146.705021,50.5924315 L143.056506,42.8860077 L151.335334,42.8860077 L149.038157,50.5924315 L153.993381,50.5924315 L156.259737,42.9077837 L157.347485,42.9077837 L157.347485,42.8860077 L168.37843,42.8860077 L166.190734,50.5696805 L171.186091,50.5696805 L173.306043,42.8860077 L175.554098,42.8860077 L175.614136,50.5696805 L179.805241,50.5696805 L184.615026,42.8860077 L187.764293,42.8860077 L186.140056,50.5696805 L191.05868,50.5696805 L192.654022,42.8860077 L195.498605,42.8860077 C195.385592,45.2680405 195.986935,47.4313384 197.547603,48.8880544 C199.453088,50.6610097 202.379862,51 204.546368,51 C207.509743,51 210.58613,50.5696805 213.68146,49.8630985 L215.385641,42.8860077 L221,42.8860077 L221,14 L200.797683,14 Z M154.63261,31.8182816 L154.338841,32.8043763 L151.653824,41.8482357 L151.547875,42.1664251 L142.711368,42.1664251 L142.022054,40.6928084 L151.547875,30.8383623 L145.427527,30.8383623 L137.978637,38.96113 L140.391396,30.8383623 L135.87859,30.8383623 L135.87859,14.729333 L154.63261,14.729333 L154.63261,31.8182816 Z M159.849176,39.4658778 L159.843397,39.4658778 C159.661678,39.4753033 159.478674,39.491229 159.269023,39.491229 C158.995159,39.491229 158.781334,39.5013045 158.579388,39.5013045 L157.378306,39.491229 L157.933738,37.4127599 L158.196365,36.3805132 L158.826603,33.9624037 C159.105604,33.9624037 159.379467,33.9523282 159.640809,33.9523282 C159.949347,33.9523282 160.269764,33.9523282 160.570917,33.9523282 C162.157912,33.9523282 163.162184,34.0436574 163.527228,34.5604308 C163.807513,34.9481733 163.771233,35.6190037 163.440542,36.6388999 C162.874515,38.3956044 162.157912,39.2874448 159.849176,39.4658778 L159.849176,39.4658778 Z M173.507989,42.1664251 L175.484429,35.0635536 L175.554098,42.1664251 L173.507989,42.1664251 Z M176.511817,30.8117111 L171.814724,30.8117111 L168.592576,42.1664251 L163.611988,42.1664251 C166.149959,41.2160821 167.694253,39.4011999 168.171989,36.708128 C168.565607,34.6153583 168.37843,33.2382709 167.53565,32.2076493 C166.272283,30.6732548 163.736559,30.8048858 161.483688,30.8048858 C161.090069,30.8048858 157.758119,30.8117111 157.758119,30.8117111 L157.758119,14.729333 L176.511817,14.729333 L176.511817,30.8117111 Z M187.906522,42.1664251 L185.083451,42.1664251 L189.357067,35.3593169 L187.906522,42.1664251 Z M198.387172,31.1312005 L198.377862,35.0635536 C197.069225,36.8940364 196.256625,38.8925519 195.876812,40.5026748 C195.732978,41.0662503 195.632165,41.6132501 195.577585,42.1664251 L192.819367,42.1664251 L195.177546,30.8383623 L187.240646,30.8308869 L180.136895,42.1664251 L179.619669,42.1664251 L179.619669,14.729333 L198.387172,14.729333 L198.387172,31.1312005 Z M209.207182,46.80341 C208.135487,46.9997189 207.067003,47.1303748 206.049888,47.1303748 C203.343039,47.1303748 201.460349,45.8569672 201.420859,42.8860077 L210.166506,42.8860077 L209.207182,46.80341 Z M220.286928,42.1664251 L215.558692,42.1664251 L216.339508,39.0011068 L206.866341,39.0011068 L206.087452,42.1664251 L201.510113,42.1664251 L201.510113,41.5163957 C201.580746,41.1595295 201.641748,40.7857626 201.730039,40.3856695 C202.562866,36.97269 204.776247,33.6000123 208.605196,33.6000123 C210.120274,33.6000123 211.625719,34.1847138 211.419599,36.3060848 L217.05579,36.3060848 C217.277642,35.31609 217.650713,33.6299137 216.587365,32.0799185 C215.385641,30.3953672 212.96582,29.7193366 209.827468,29.7193366 C207.595145,29.7193366 204.330617,30.081078 201.510113,31.9447124 L201.510113,14.729333 L220.286928,14.729333 L220.286928,42.1664251 L220.286928,42.1664251 Z" id="KPMG_NoCP_RGB_278"></path>
        </g>
    </g>
</svg>