<svg xmlns="http://www.w3.org/2000/svg" viewBox="0 0 92 92" role="img" aria-labelledby="title desc">
  <title id="title">KPMG</title>
  <desc id="desc">KPMG four-panel wordmark</desc>
  <g fill="#00338D">
    <path fill-rule="evenodd" clip-rule="evenodd" d="M8.32227 55.8237V29.792H26.7441V55.8237H8.32227ZM26.0821 55.1612V30.4535H8.98426V55.1612H26.0821ZM28.7215 55.8237V29.792H47.1434V55.8237H28.7215ZM47.6789 55.1612L47.31 49.2486L46.4804 45.2232V30.4535H29.3835V49.052L27.8032 51.9544L29.3835 52.9223V55.1608L47.6789 55.1612ZM49.1203 55.8237V29.792H67.5417V55.8237H49.1203ZM66.8806 55.1612V30.4535H49.7823V55.1612H66.8806ZM69.5196 55.8237V29.792H87.9409V55.8237H69.5196ZM87.279 55.1612V30.4535H70.1816V55.1612H87.279Z"/>
    <path fill-rule="evenodd" clip-rule="evenodd" d="M72.7331 55.1963L73.5636 52.533H81.024L78.5293 61.4229C77.5327 61.8177 74.2227 62.2081 71.8706 62.2081C68.3282 62.2081 63.1845 59.8489 65.2984 52.8962C67.8275 44.5771 72.2171 43.79 75.7596 43.79C80.9362 43.79 82.78 47.1291 81.8517 49.8258L78.2338 49.821C78.2925 49.6998 78.3121 49.5246 78.3541 49.3848C78.9798 47.2866 77.6892 46.439 75.4159 46.3311C72.0592 46.1731 70.2431 48.8269 69.1014 52.7922C67.87 57.0686 68.9057 59.6804 72.6362 59.667C75.6016 59.657 75.4431 59.0465 75.4431 59.0465L76.6645 55.1963H72.7331ZM8.00528 61.769H4.05859L9.34407 44.1638H13.2912C13.2908 44.1638 8.08213 61.4077 8.00528 61.769ZM11.0871 51.9402H11.0843L18.7968 44.1638H23.6455L14.9264 52.3082L19.3585 61.769H15.0601L11.0847 51.923L11.0871 51.9402ZM22.4036 61.7685L27.7139 44.1618H32.1999C36.2593 44.1127 40.6322 44.0511 39.6299 49.4764C39.1049 52.3163 36.623 54.8187 31.001 54.813L28.1039 54.8149L26.0248 61.7685H22.4036ZM28.7883 52.229C30.097 52.229 31.0525 52.2495 31.9327 52.2333C34.5783 52.185 35.3892 51.2701 35.9858 49.4769C37.0215 46.3641 34.3721 46.6915 30.402 46.6958L28.7883 52.229ZM58.5123 44.1609H64.2966L59.9112 61.7589H55.829L60.3102 46.6867L50.5707 61.7589H47.1438L46.2331 46.6848L41.7695 61.7589H38.4619L43.8529 44.1609H49.5765C49.5765 44.1609 50.45 53.1936 49.7799 59.3849C49.7803 59.3854 51.4823 53.9166 58.5123 44.1609Z"/>
  </g>
</svg>
